<svg xmlns="http://www.w3.org/2000/svg" viewBox="0 0 30 30"><title>Ресурс 1</title><g id="Слой_2" data-name="Слой 2"><g id="Слой_1-2" data-name="Слой 1"><path d="M15.5,30A14.5,14.5,0,1,1,30,15.5,14.51,14.51,0,0,1,15.5,30Zm0-27.75A13.25,13.25,0,1,0,28.75,15.5,13.26,13.26,0,0,0,15.5,2.25Z" transform="translate(-0.5 -0.5)"/><path d="M15.5,1.5a14,14,0,1,1-14,14,14,14,0,0,1,14-14m0,27.75A13.75,13.75,0,1,0,1.75,15.5,13.77,13.77,0,0,0,15.5,29.25M15.5.5a15,15,0,1,0,15,15,15,15,0,0,0-15-15Zm0,27.75A12.75,12.75,0,1,1,28.25,15.5,12.75,12.75,0,0,1,15.5,28.25Z" transform="translate(-0.5 -0.5)"/><rect x="13.5" y="10.65" width="3" height="13.5" rx="1.5"/><circle cx="15" cy="7.65" r="1.95"/></g></g></svg>