<svg xmlns="http://www.w3.org/2000/svg" viewBox="0 0 135 24"><defs><style>.cls-1{fill-rule:evenodd;}.cls-2{fill:#1e70b1;}.cls-3{fill:#fff;}</style></defs><title>vk</title><g id="Слой_2" data-name="Слой 2"><g id="Слой_1-2" data-name="Слой 1"><path class="cls-1" d="M66,12.5c0,3.34-2.43,5.5-5.88,5.5s-5.88-2.16-5.88-5.5S56.67,7,60.12,7,66,9.16,66,12.5Zm-9.22,0a3.34,3.34,0,1,0,6.68,0,3.34,3.34,0,1,0-6.68,0Zm-17-.21A2.43,2.43,0,0,0,41.31,10c0-1.73-1.58-3-3.87-3H32.17V18h5.5c2.37,0,4-1.29,4-3.05A2.76,2.76,0,0,0,39.75,12.29ZM34.6,9h2.83a1.28,1.28,0,0,1,1.44,1.2,1.29,1.29,0,0,1-1.44,1.2H34.6V9Zm3.07,7H34.61V13.3h3.06a1.41,1.41,0,0,1,1.59,1.36c0,.8-.63,1.33-1.59,1.33Zm13.17,2H54L49,12.29,53.61,7h-2.9L47,11.27h-.6V7H44V18h2.44V13.62H47L50.83,18ZM75.47,7v4.34H70.54V7H68.1V18h2.43V13.56h4.93V18h2.43V7H75.47ZM85.9,18H83.46V9.22h-3.8V7h10V9.22H85.9ZM95.6,7c-2.14,0-4,.89-4.57,2.8l2.24.37a2.39,2.39,0,0,1,2.2-1.25,2.19,2.19,0,0,1,2.22,2.33H95.32c-3.23,0-4.84,1.42-4.84,3.45S92.07,18,94.31,18a3.94,3.94,0,0,0,3.53-1.73l.5,1.73h1.8V11.82C100.14,8.63,98.41,7,95.6,7Zm-.72,9.16c-1.19,0-1.95-.61-1.95-1.57s.62-1.43,2.48-1.43h2.3A2.76,2.76,0,0,1,94.88,16.16ZM112.73,18h-3.2l-3.8-4.38h-.6V18h-2.42V7h2.43v4.27h.59L109.4,7h2.9l-4.63,5.29,5,5.71ZM117,18h2.44V9.22h3.8V7h-10V9.22H117ZM129.3,7c3.33,0,5.7,2.2,5.7,5.37,0,.3,0,.55,0,.79h-8.84A3.15,3.15,0,0,0,129.44,16a3.34,3.34,0,0,0,2.83-1.33l2.29.38c-.83,2.1-3,3-5.27,3-3.34,0-5.71-2.18-5.71-5.5S126,7,129.29,7Zm3.06,4.25A3.06,3.06,0,0,0,129.29,9a3,3,0,0,0-3,2.25Z"/><path class="cls-2" d="M11.5,24h1c5.44,0,8.15,0,9.83-1.68S24,17.92,24,12.5v-1c0-5.4,0-8.12-1.67-9.8S17.93,0,12.5,0h-1C6.06,0,3.35,0,1.67,1.68S0,6.08,0,11.5v1c0,5.4,0,8.12,1.68,9.8S6.08,24,11.5,24Z"/><path class="cls-3" d="M12.77,17.29c-5.47,0-8.59-3.75-8.72-10H6.79c.09,4.58,2.11,6.52,3.71,6.92V7.3h2.58v4c1.58-.17,3.24-2,3.8-3.95h2.58a7.63,7.63,0,0,1-3.51,5,7.92,7.92,0,0,1,4.11,5H17.22a5,5,0,0,0-4.14-3.57v3.57Z"/></g></g></svg>